<?xml version="1.0" encoding="utf-8"?>
<!-- Generator: Adobe Illustrator 21.1.0, SVG Export Plug-In . SVG Version: 6.00 Build 0)  -->
<svg version="1.1" id="Layer_1" xmlns="http://www.w3.org/2000/svg" xmlns:xlink="http://www.w3.org/1999/xlink" x="0px" y="0px"
     viewBox="0 0 966.7 232.9" style="enable-background:new 0 0 966.7 232.9;" xml:space="preserve">
<style type="text/css">
	.st0{fill:#FFFFFF;}
</style>
    <title>NGINX_Controller_W_170828</title>
    <path class="st0" d="M198.5,53.1L109.7,1.9c-4.3-2.5-9.7-2.5-14,0L7,53.1c-4.3,2.5-7,7.1-7,12.1v102.5c0,5,2.7,9.6,7,12.1L95.7,231
	c4.3,2.5,9.7,2.5,14,0l88.7-51.2c4.3-2.5,7-7.1,7-12.1V65.2C205.5,60.2,202.8,55.6,198.5,53.1z M154.1,155.9c0,6.1-5.4,11.1-13,11.1
	c-5.5,0-11.7-2.2-15.6-7L74.3,98.7v57.2c0,6.1-5,11.1-11.1,11.1h-0.6c-6.1,0-11.1-5-11.1-11.1V77.1c0-6.1,5.4-11.1,13-11.1
	c5.4,0,11.7,2.2,15.6,7l51.2,61.3V77.1c0-6.1,5-11.1,11.1-11.1h0.6c6.1,0,11.1,5,11.1,11.1V155.9z"/>
    <path class="st0" d="M348.4,136.5c3.9,0,7,3.2,7,7c0,0.7-0.1,1.3-0.3,2c-0.7,2.4-1.5,4.7-2.5,6.9c-4.4,9.9-12.6,17.5-22.8,21
	c-6.1,2.1-12.4,3.1-18.9,3c-7.2,0.1-14.3-1.2-21-3.9c-6.1-2.5-11.5-6.5-15.8-11.5c-4.5-5.5-8-11.8-10-18.5c-2.5-8.1-3.7-16.5-3.5-25
	c-0.1-8.6,1.1-17.1,3.8-25.2c2.2-6.9,5.8-13.2,10.6-18.6c4.4-5,9.9-8.9,16-11.5c6.3-2.7,13.1-4,20-4c6.1-0.1,12.2,0.8,18,2.7
	c4.8,1.6,9.1,4.2,12.9,7.6c3.6,3.3,6.5,7.3,8.5,11.7c1.1,2.3,2.1,4.7,2.9,7.2c1.2,3.7-0.8,7.6-4.5,8.8c-0.3,0.1-0.7,0.2-1,0.2
	l-0.5,0.1c-3.4,0.6-6.8-1.5-7.8-4.8c-0.6-1.8-1.3-3.6-2.1-5.3c-1.4-3.1-3.4-6-5.8-8.4c-2.4-2.3-5.3-4.1-8.5-5.3
	c-3.9-1.3-8-1.9-12.1-1.8c-10.3-0.3-20,4.5-26,12.9c-3.2,4.4-5.5,9.4-6.8,14.6c-3.2,12.5-3.2,25.5,0,38c1.4,5.3,3.7,10.3,6.9,14.8
	c2.9,4,6.6,7.2,11,9.5c4.7,2.3,9.9,3.4,15.1,3.3c4.5,0.1,8.9-0.6,13.2-2c3.4-1.2,6.5-3.1,9-5.6c2.4-2.5,4.3-5.4,5.6-8.7
	c0.8-1.9,1.4-3.8,1.9-5.7c0.8-3.1,3.5-5.3,6.8-5.3L348.4,136.5z"/>
    <path class="st0" d="M411.2,176.1c-5.7,0.1-11.3-0.9-16.6-3c-4.7-1.9-8.9-4.8-12.3-8.5c-3.5-3.9-6.1-8.6-7.7-13.6
	c-1.9-5.8-2.8-11.9-2.7-18c-0.1-6.1,0.9-12.2,2.8-18c1.7-5.1,4.4-9.7,8-13.7c3.5-3.8,7.8-6.8,12.5-8.8c5.2-2.1,10.7-3.2,16.3-3.1
	c5.6-0.1,11.2,0.9,16.4,3c4.7,1.9,8.9,4.9,12.4,8.6c3.5,3.9,6.2,8.5,7.8,13.5c3.6,11.7,3.6,24.3-0.1,36c-1.7,5.1-4.4,9.7-7.9,13.7
	c-3.5,3.8-7.8,6.8-12.5,8.8C422.5,175.2,416.9,176.2,411.2,176.1z M411.4,164.8c3.9,0.1,7.8-0.7,11.4-2.3c3.1-1.5,5.8-3.8,7.8-6.6
	c2.2-3.1,3.7-6.5,4.5-10.2c1-4.3,1.5-8.6,1.4-13c0-4.3-0.4-8.6-1.4-12.8c-0.8-3.6-2.4-7-4.5-10c-2-2.8-4.7-5-7.8-6.5
	c-3.5-1.7-7.4-2.5-11.4-2.4c-3.9-0.1-7.8,0.7-11.3,2.4c-3.1,1.5-5.7,3.8-7.7,6.5c-2.1,3-3.7,6.4-4.5,10c-1.9,8.5-1.9,17.4,0,25.9
	c0.8,3.6,2.3,7,4.4,10.1c2,2.9,4.7,5.2,7.8,6.7C403.6,164.1,407.5,164.9,411.4,164.8L411.4,164.8z"/>
    <path class="st0" d="M476.2,92L476.2,92c3.7,0,6.8,3,6.8,6.8v0v5.6c4-5.3,8.4-9.2,13.2-11.5c4.8-2.3,10-3.5,15.3-3.5
	c9.3,0,16.1,2.5,20.6,7.6c4.5,5,6.7,12.5,6.7,22.2v47.4c0,3.8-3.1,6.9-6.9,6.9l0,0c-3.8,0-6.9-3.1-6.9-6.9V122
	c0-7.6-1.4-12.9-4.1-16c-2.7-3.1-6.9-4.6-12.6-4.6c-3.1,0-6.2,0.5-9.1,1.6c-3,1.1-5.8,2.8-8.1,5c-2.4,2.1-4.5,4.6-6,7.3
	c-1.5,3.1-2.2,6.5-2,10v41.4c0,3.8-3.1,6.9-6.9,6.9l0,0c-3.8,0-6.9-3.1-6.9-6.9V98.8C469.5,95.1,472.5,92,476.2,92
	C476.2,92,476.2,92,476.2,92z"/>
    <path class="st0" d="M564.1,102.9H557c-3,0-5.4-2.4-5.4-5.4l0,0l0,0c0-3,2.4-5.4,5.4-5.4l0,0h7.2V76.7c0-3.8,3.1-6.9,6.9-6.9l0,0
	c3.8,0,6.9,3.1,6.9,6.9V92H594c3,0,5.4,2.4,5.4,5.4l0,0l0,0c0,3-2.4,5.4-5.4,5.4l0,0h-16.2v47.8c0,4,0.9,7.2,2.7,9.6
	c1.8,2.4,4.5,3.6,8.2,3.6c1.9-0.1,3.8-0.3,5.8-0.7c2.9-0.5,5.7,1.4,6.3,4.3l0,0c0.7,3-1.2,6-4.2,6.7c0,0,0,0,0,0l-1.4,0.3
	c-2.9,0.5-5.8,0.7-8.8,0.7c-4.6,0-8.4-0.7-11.2-2c-2.8-1.3-5.1-3.3-6.8-5.8c-1.8-2.7-2.9-5.8-3.4-9c-0.6-3.8-0.9-7.6-0.9-11.4V102.9
	z"/>
    <path class="st0" d="M620.9,92L620.9,92c3.7,0,6.8,3,6.8,6.8v0v5.8c2.7-4.2,6.4-7.8,10.7-10.4c4-2.4,8.5-3.6,13.1-3.6h0.2
	c3.5,0.1,6.3,2.9,6.2,6.4c0,0.3,0,0.5-0.1,0.8l0,0c-0.5,3.3-3.4,5.7-6.8,5.5h-0.7c-2.6,0-5.2,0.5-7.7,1.3c-2.8,1-5.3,2.5-7.4,4.5
	c-2.3,1.9-4.1,4.3-5.4,7c-1.4,2.9-2.1,6-2,9.1v41.6c0,3.7-3,6.8-6.8,6.8l0,0h-0.2c-3.7,0-6.8-3-6.8-6.8v0v-68
	C614.1,95.1,617.1,92.1,620.9,92C620.9,92,620.9,92,620.9,92z"/>
    <path class="st0" d="M929.7,92L929.7,92c3.7,0,6.8,3,6.8,6.8v0v5.8c2.7-4.2,6.4-7.8,10.7-10.4c4-2.4,8.5-3.6,13.1-3.6h0.2
	c3.5,0.1,6.3,2.9,6.2,6.4c0,0.3,0,0.5-0.1,0.8l0,0c-0.5,3.3-3.4,5.7-6.8,5.5h-0.7c-2.6,0-5.2,0.5-7.7,1.3c-2.8,1-5.3,2.5-7.4,4.5
	c-2.3,1.9-4.1,4.3-5.4,7c-1.4,2.9-2.1,6-2,9.1v41.6c0,3.7-3,6.8-6.8,6.8l0,0h-0.2c-3.7,0-6.8-3-6.8-6.8v0v-68
	C922.9,95.1,925.9,92.1,929.7,92C929.6,92,929.7,92,929.7,92z"/>
    <path class="st0" d="M703.8,176.1c-5.7,0.1-11.3-0.9-16.6-3c-4.7-1.9-8.9-4.8-12.3-8.5c-3.5-3.9-6.1-8.6-7.7-13.6
	c-1.9-5.8-2.8-11.9-2.7-18c-0.1-6.1,0.9-12.2,2.8-18c1.7-5.1,4.4-9.7,8-13.7c3.5-3.8,7.8-6.8,12.5-8.8c5.2-2.1,10.7-3.2,16.3-3.1
	c5.6-0.1,11.2,0.9,16.4,3c4.7,1.9,8.9,4.9,12.4,8.6c3.5,3.9,6.2,8.5,7.8,13.5c3.6,11.7,3.6,24.3-0.1,36c-1.7,5.1-4.4,9.7-7.9,13.7
	c-3.5,3.8-7.8,6.8-12.5,8.8C715,175.2,709.4,176.2,703.8,176.1z M703.9,164.8c3.9,0.1,7.8-0.7,11.4-2.3c3.1-1.5,5.8-3.8,7.8-6.6
	c2.2-3.1,3.7-6.5,4.5-10.2c1-4.3,1.5-8.6,1.4-13c0-4.3-0.4-8.6-1.4-12.8c-0.8-3.6-2.4-7-4.5-10c-2-2.8-4.7-5-7.8-6.5
	c-3.5-1.7-7.4-2.5-11.4-2.4c-3.9-0.1-7.8,0.7-11.3,2.4c-3.1,1.5-5.7,3.8-7.7,6.5c-2.1,3-3.7,6.4-4.5,10c-1.9,8.5-1.9,17.4,0,25.9
	c0.8,3.6,2.3,7,4.4,10.1c2,2.8,4.6,5.1,7.7,6.6C696.1,164.1,700,164.9,703.9,164.8L703.9,164.8z"/>
    <path class="st0" d="M769.2,61L769.2,61c3.8,0,6.9,3.1,6.9,6.9v98.9c0,3.8-3.1,6.9-6.9,6.9l0,0c-3.8,0-6.9-3.1-6.9-6.9V67.8
	C762.3,64,765.4,61,769.2,61z"/>
    <path class="st0" d="M804.7,61L804.7,61c3.8,0,6.9,3.1,6.9,6.9v98.9c0,3.8-3.1,6.9-6.9,6.9l0,0c-3.8,0-6.9-3.1-6.9-6.9V67.8
	C797.8,64,800.9,61,804.7,61z"/>
    <path class="st0" d="M894.8,150.7c3.5,0,6.4,2.8,6.5,6.4c0,1-0.2,1.9-0.6,2.8c-1.8,3.7-4.4,6.9-7.6,9.5c-5.6,4.5-13.7,6.8-24.2,6.8
	c-12.4,0-21.9-3.8-28.6-11.3c-6.6-7.5-9.9-18-9.9-31.5c-0.1-6.4,0.9-12.7,2.8-18.8c1.7-5.1,4.4-9.8,8-13.7c3.4-3.7,7.6-6.6,12.2-8.4
	c10.2-3.9,21.5-3.9,31.7,0.1c4.3,1.8,8.1,4.7,11.1,8.3c3,3.7,5.2,8,6.5,12.5c1.5,5.2,2.2,10.5,2.1,15.9l0,0c0,3.8-3.1,6.9-6.9,6.9
	h-53.7c0,3.9,0.5,7.7,1.7,11.4c1,3.3,2.6,6.4,4.7,9.1c2.1,2.6,4.7,4.7,7.7,6.1c3.3,1.5,6.9,2.3,10.6,2.2c6.8,0,11.8-1.3,15-3.9
	c2.3-1.9,4.1-4.2,5.2-6.9C890.1,152.1,892.3,150.7,894.8,150.7L894.8,150.7z M891.1,126c0-3.6-0.4-7.1-1.3-10.6
	c-0.7-3-2.1-5.7-3.9-8.1c-1.8-2.3-4.2-4.1-6.9-5.3c-3.3-1.3-6.7-2-10.3-1.9c-7.3,0-12.9,2.2-17,6.6c-4.1,4.4-6.5,10.8-7.2,19.2
	L891.1,126z"/>
</svg>
